<?xml version="1.0" encoding="UTF-8" standalone="no"?>
<!-- Created with Inkscape (http://www.inkscape.org/) -->

<svg
   width="100"
   height="100"
   viewBox="0 0 100 100"
   version="1.1"
   id="svg5"
   inkscape:version="1.1.2 (b8e25be833, 2022-02-05)"
   sodipodi:docname="close_icon.svg"
   xmlns:inkscape="http://www.inkscape.org/namespaces/inkscape"
   xmlns:sodipodi="http://sodipodi.sourceforge.net/DTD/sodipodi-0.dtd"
   xmlns="http://www.w3.org/2000/svg"
   xmlns:svg="http://www.w3.org/2000/svg">
  <sodipodi:namedview
     id="namedview7"
     pagecolor="#0f0f0f"
     bordercolor="#999999"
     borderopacity="1"
     inkscape:pageshadow="0"
     inkscape:pageopacity="0"
     inkscape:pagecheckerboard="0"
     inkscape:document-units="px"
     showgrid="false"
     inkscape:object-paths="true"
     inkscape:snap-intersection-paths="false"
     width="100px"
     inkscape:zoom="3.47"
     inkscape:cx="48.559078"
     inkscape:cy="43.948127"
     inkscape:window-width="1360"
     inkscape:window-height="705"
     inkscape:window-x="-4"
     inkscape:window-y="-4"
     inkscape:window-maximized="1"
     inkscape:current-layer="g3187"
     showguides="true"
     inkscape:snap-page="false"
     inkscape:snap-smooth-nodes="false"
     inkscape:snap-midpoints="false"
     inkscape:guide-bbox="true"
     inkscape:object-nodes="false" />
  <defs
     id="defs2" />
  <g
     inkscape:label="Camada 1"
     inkscape:groupmode="layer"
     id="layer1">
    <g
       id="g3187"
       transform="matrix(1.5285658,0,0,1.5285658,-26.427958,-26.427958)"
       style="mix-blend-mode:normal;fill:#8533ff;fill-opacity:1;stroke-width:0.65421">
      <path
         id="path2199"
         style="color:#000000;fill:#8533ff;fill-opacity:1;stroke-width:0.654208;stroke-linecap:round;stroke-linejoin:round;-inkscape-stroke:none"
         d="m 22.19576,17.289333 a 4.9064791,4.9064791 0 0 0 -3.469035,1.437445 4.9064791,4.9064791 0 0 0 0,6.939347 l 24.334349,24.33307 -24.334349,24.334349 a 4.9064791,4.9064791 0 0 0 0,6.939346 4.9064791,4.9064791 0 0 0 6.939347,0 L 49.999142,56.939819 74.333495,81.27289 a 4.9064791,4.9064791 0 0 0 6.939345,0 4.9064791,4.9064791 0 0 0 0,-6.939346 L 56.939761,49.999195 81.27284,25.666125 a 4.9064791,4.9064791 0 0 0 0,-6.939347 4.9064791,4.9064791 0 0 0 -3.471592,-1.437445 4.9064791,4.9064791 0 0 0 -3.467753,1.437445 L 49.999142,43.061126 25.666072,18.726778 A 4.9064791,4.9064791 0 0 0 22.19576,17.289333 Z" />
    </g>
  </g>
</svg>
