<?xml version="1.0" encoding="UTF-8" standalone="no"?>
<!-- Created with Inkscape (http://www.inkscape.org/) -->

<svg
   width="110"
   height="40.173"
   viewBox="0 0 110 40.172999"
   version="1.1"
   id="svg5"
   inkscape:version="1.1.2 (b8e25be833, 2022-02-05)"
   sodipodi:docname="cosmos_logo.svg"
   xmlns:inkscape="http://www.inkscape.org/namespaces/inkscape"
   xmlns:sodipodi="http://sodipodi.sourceforge.net/DTD/sodipodi-0.dtd"
   xmlns="http://www.w3.org/2000/svg"
   xmlns:svg="http://www.w3.org/2000/svg">
  <sodipodi:namedview
     id="namedview7"
     pagecolor="#0a0a0a"
     bordercolor="#999999"
     borderopacity="1"
     inkscape:pageshadow="0"
     inkscape:pageopacity="0"
     inkscape:pagecheckerboard="0"
     inkscape:document-units="px"
     showgrid="false"
     width="109.463px"
     inkscape:zoom="4.83"
     inkscape:cx="53.519669"
     inkscape:cy="20.600414"
     inkscape:window-width="1360"
     inkscape:window-height="705"
     inkscape:window-x="-4"
     inkscape:window-y="-4"
     inkscape:window-maximized="1"
     inkscape:current-layer="layer1" />
  <defs
     id="defs2">
    <inkscape:path-effect
       effect="bspline"
       id="path-effect1250"
       is_visible="true"
       lpeversion="1"
       weight="33.333333"
       steps="2"
       helper_size="0"
       apply_no_weight="true"
       apply_with_weight="true"
       only_selected="false" />
    <rect
       x="189.56963"
       y="134.481"
       width="784.20251"
       height="422.88608"
       id="rect7266" />
    <rect
       x="1.6202532"
       y="14.582278"
       width="991.59491"
       height="473.11392"
       id="rect5456" />
    <rect
       x="6.4810128"
       y="11.341772"
       width="967.29114"
       height="456.91138"
       id="rect1706" />
  </defs>
  <g
     inkscape:label="Camada 1"
     inkscape:groupmode="layer"
     id="layer1">
    <text
       xml:space="preserve"
       id="text1704"
       style="font-style:normal;font-variant:normal;font-weight:900;font-stretch:normal;font-size:133.333px;line-height:1.25;font-family:'Red Hat Display';-inkscape-font-specification:'Red Hat Display Heavy';white-space:pre;shape-inside:url(#rect1706)" />
    <text
       xml:space="preserve"
       style="font-style:normal;font-variant:normal;font-weight:900;font-stretch:normal;font-size:133.333px;line-height:1.25;font-family:'Red Hat Display';-inkscape-font-specification:'Red Hat Display Heavy'"
       x="19.443039"
       y="142.58228"
       id="text3428"><tspan
         sodipodi:role="line"
         id="tspan3426"
         x="19.443039"
         y="142.58228" /></text>
    <text
       xml:space="preserve"
       id="text5454"
       style="font-style:normal;font-variant:normal;font-weight:900;font-stretch:normal;font-size:133.333px;line-height:1.25;font-family:'Red Hat Display';-inkscape-font-specification:'Red Hat Display Heavy';white-space:pre;shape-inside:url(#rect5456)" />
    <g
       id="g949">
      <g
         id="g938">
        <path
           d="m 10.742906,30.386548 q -2.2857247,0 -4.2571621,-0.771433 Q 4.5428776,28.815112 3.085728,27.415106 1.6285784,26.015099 0.80000311,24.157948 -5.98214e-7,22.272224 -5.98214e-7,20.100787 q 0,-2.200011 0.800003708214,-4.057163 0.82857529,-1.885722 2.28572489,-3.28573 1.4857212,-1.400006 3.4285874,-2.171438 1.9714377,-0.800004 4.2285906,-0.800004 1.657151,0 3.257158,0.485716 1.600008,0.485717 2.942871,1.371436 1.371435,0.857147 2.285725,2.057152 l -3.314301,3.257158 q -1.057148,-1.342864 -2.371439,-2.000008 -1.285721,-0.657147 -2.800014,-0.657147 -1.200005,0 -2.2571529,0.457146 -1.0285759,0.428574 -1.8000083,1.200005 -0.7714322,0.771432 -1.2000056,1.828581 -0.4285735,1.057147 -0.4285735,2.314296 0,1.228577 0.4285735,2.285723 0.457145,1.028576 1.2285772,1.828582 0.8000035,0.771432 1.8571513,1.200006 1.0857198,0.428572 2.3428683,0.428572 1.457149,0 2.685726,-0.628573 1.257149,-0.628575 2.257154,-1.857153 l 3.228587,3.171444 q -0.914291,1.171435 -2.257154,2.057152 -1.342863,0.857146 -2.914299,1.342863 -1.571436,0.457145 -3.171444,0.457145 z"
           id="path23724"
           style="font-weight:900;font-size:26.6667px;line-height:1.25;font-family:'Red Hat Display';-inkscape-font-specification:'Red Hat Display Heavy';fill:#ffffff;stroke-width:1" />
        <path
           d="m 28.028653,27.929394 q -2.314297,0 -4.171448,-1.028576 -1.857152,-1.057148 -2.942872,-2.828585 -1.085718,-1.771437 -1.085718,-3.971447 0,-2.20001 1.085718,-3.971447 1.08572,-1.800008 2.942872,-2.828584 1.857151,-1.057148 4.171448,-1.057148 2.314297,0 4.171448,1.057148 1.857152,1.028576 2.94287,2.828584 1.08572,1.771437 1.08572,3.971447 0,2.20001 -1.08572,3.971447 -1.085718,1.771437 -2.94287,2.828585 -1.857151,1.028576 -4.171448,1.028576 z m 0,-4.000019 q 1.057148,0 1.885723,-0.514287 0.828575,-0.514289 1.314291,-1.371436 0.485717,-0.885719 0.485717,-1.942866 0,-1.085719 -0.485717,-1.942866 -0.485716,-0.885719 -1.342863,-1.400006 -0.828575,-0.514289 -1.857151,-0.514289 -1.028576,0 -1.885723,0.514289 -0.828576,0.514287 -1.314293,1.400006 -0.485716,0.857147 -0.485716,1.942866 0,1.057147 0.485716,1.942866 0.485717,0.857147 1.314293,1.371436 0.857147,0.514287 1.885723,0.514287 z"
           id="path23726"
           style="font-weight:900;font-size:26.6667px;line-height:1.25;font-family:'Red Hat Display';-inkscape-font-specification:'Red Hat Display Heavy';fill:#ffffff;stroke-width:1" />
        <path
           d="m 44.371568,27.900822 q -2.142866,0 -3.971446,-0.485717 -1.828581,-0.514288 -3.171444,-1.485721 l 2.20001,-3.1143 q 1.428578,0.857147 2.600013,1.257149 1.171434,0.37143 2.314296,0.37143 1.142863,0 1.800009,-0.314287 0.685717,-0.342858 0.685717,-0.885719 0,-0.428573 -0.371431,-0.685717 -0.37143,-0.285716 -1.171433,-0.400001 l -3.000015,-0.457146 q -2.257153,-0.342859 -3.457159,-1.485721 -1.171433,-1.171434 -1.171433,-3.028585 0,-1.542865 0.771432,-2.628585 0.800003,-1.11429 2.257153,-1.685721 1.45715,-0.600003 3.48573,-0.600003 1.657151,0 3.28573,0.457144 1.628579,0.457146 3.028586,1.371436 L 48.285872,17.0722 q -1.228577,-0.714289 -2.342867,-1.028576 -1.114291,-0.342859 -2.228583,-0.342859 -0.885717,0 -1.428578,0.314287 -0.542859,0.285716 -0.542859,0.771433 0,0.457144 0.400002,0.74286 0.400002,0.257144 1.371434,0.400002 l 3.000015,0.457145 q 2.228582,0.314287 3.428587,1.485722 1.228577,1.142862 1.228577,2.914298 0,1.485721 -0.885719,2.628584 -0.885717,1.142862 -2.428582,1.82858 -1.514292,0.657146 -3.485731,0.657146 z"
           id="path23728"
           style="font-weight:900;font-size:26.6667px;line-height:1.25;font-family:'Red Hat Display';-inkscape-font-specification:'Red Hat Display Heavy';fill:#ffffff;stroke-width:1" />
        <path
           d="M 52.94306,27.786536 V 12.67218 h 4.628593 v 0.971434 q 1.600008,-1.257149 3.771446,-1.257149 1.428578,0 2.571441,0.542859 1.142862,0.54286 1.914294,1.542865 0.91429,-1.000005 2.171439,-1.542865 1.257149,-0.542859 2.74287,-0.542859 1.714293,0 3.028585,0.771432 1.314292,0.771432 2.057153,2.142867 0.771432,1.371435 0.771432,3.171443 v 9.314329 H 71.97172 v -8.685755 q 0,-1.257148 -0.685718,-2.000009 -0.657146,-0.74286 -1.771436,-0.74286 -0.771433,0 -1.400007,0.285715 -0.628575,0.285716 -1.085719,0.857147 0.02858,0.228573 0.02858,0.485717 0.02857,0.228573 0.02857,0.485716 v 9.314329 h -4.628594 v -8.685755 q 0,-1.257148 -0.685717,-2.000009 -0.657146,-0.74286 -1.771437,-0.74286 -0.771432,0 -1.400006,0.285715 -0.600003,0.257145 -1.028577,0.800004 v 10.342905 z"
           id="path23730"
           style="font-weight:900;font-size:26.6667px;line-height:1.25;font-family:'Red Hat Display';-inkscape-font-specification:'Red Hat Display Heavy';fill:#ffffff;stroke-width:1" />
        <path
           id="path23734"
           style="font-weight:900;font-size:26.6667px;line-height:1.25;font-family:'Red Hat Display';-inkscape-font-specification:'Red Hat Display Heavy';fill:#ffffff;stroke-width:1"
           d="m 103.00012,12.272579 c -1.35239,0 -2.51491,0.198493 -3.48634,0.598495 -0.971433,0.380955 -1.722531,0.943808 -2.255867,1.686669 -0.121671,0.17124 -0.227289,0.351604 -0.320174,0.539901 l 1.559017,4.771222 c 0,0 -0.454587,0.09567 -0.977263,0.192522 0.04607,0.05098 0.08895,0.103597 0.138114,0.152763 0.800003,0.761908 1.952274,1.257204 3.457043,1.485775 l 3.00085,0.458289 c 0.53333,0.07619 0.92216,0.209217 1.16978,0.399694 0.24763,0.17143 0.3725,0.400672 0.3725,0.686386 0,0.361908 -0.22925,0.656616 -0.6864,0.885187 -0.43809,0.209525 -1.03775,0.313897 -1.79966,0.313897 -0.76191,0 -1.53351,-0.122778 -2.31446,-0.370397 -0.78096,-0.266668 -1.646679,-0.686246 -2.599065,-1.257678 l -2.201459,3.11385 c 0.895242,0.647622 1.953391,1.142917 3.172445,1.485776 1.219049,0.32381 2.543259,0.485492 3.971829,0.485491 1.31429,0 2.47472,-0.218991 3.48425,-0.657089 1.02857,-0.457144 1.83908,-1.067059 2.42956,-1.828968 C 109.70529,24.652456 110,23.776487 110,22.786007 c 0,-1.180957 -0.40932,-2.151048 -1.22838,-2.912956 -0.8,-0.780956 -1.94202,-1.27625 -3.42774,-1.485775 l -3.00085,-0.458288 c -0.64762,-0.09524 -1.10401,-0.228266 -1.37068,-0.399695 -0.26667,-0.190477 -0.39969,-0.438125 -0.39969,-0.742887 0,-0.323812 0.18008,-0.581709 0.54199,-0.772186 0.36191,-0.209525 0.8388,-0.313895 1.42927,-0.313895 0.74286,0 1.4858,0.11462 2.22867,0.343193 0.74286,0.209525 1.52261,0.553386 2.34166,1.02958 l 2.20146,-2.971551 c -0.93334,-0.609526 -1.94443,-1.068008 -3.03014,-1.372773 -1.08573,-0.304762 -2.18069,-0.456195 -3.28545,-0.456195 z" />
      </g>
      <g
         id="g6605"
         transform="matrix(0.44610069,0,0,0.44610066,57.349801,-9.4211994)"
         style="fill:#8533ff;fill-opacity:1;stroke-width:8.47233"
         inkscape:export-filename="C:\Users\RENATO\Desktop\Logo Cosmos - Everything.png"
         inkscape:export-xdpi="96"
         inkscape:export-ydpi="96">
        <path
           id="path2090"
           style="fill:#8533ff;fill-opacity:1;stroke:none;stroke-width:112.083;stroke-linecap:round;stroke-linejoin:round;stroke-miterlimit:4;stroke-dasharray:none;stroke-opacity:0.590361"
           d="M 66.145832,35.210771 A 30.935281,30.935281 0 0 0 35.210771,66.145832 30.935281,30.935281 0 0 0 66.145832,97.080894 30.935281,30.935281 0 0 0 97.080894,66.145832 30.935281,30.935281 0 0 0 66.145832,35.210771 Z m 0,8.249107 A 22.685873,22.685873 0 0 1 88.831787,66.145832 22.685873,22.685873 0 0 1 66.145832,88.831787 22.685873,22.685873 0 0 1 43.459878,66.145832 22.685873,22.685873 0 0 1 66.145832,43.459878 Z" />
        <path
           id="path1786"
           style="fill:#8533ff;fill-opacity:1;stroke-width:112.083;stroke-linecap:round;stroke-linejoin:round;stroke-opacity:0.590361"
           d="m 40.149509,21.118874 c 0,0 15.840098,27.465253 29.706421,31.180693 13.866287,3.715459 41.31686,-12.150057 41.31686,-12.150057 0,0 -27.465225,15.840136 -31.180688,29.706419 -3.715455,13.866283 12.150063,41.316861 12.150063,41.316861 0,0 -15.840188,-27.465204 -29.706425,-31.180691 -13.86629,-3.715459 -41.316865,12.15006 -41.316865,12.15006 0,0 27.465225,-15.840143 31.180693,-29.706426 C 56.015023,48.569451 40.149509,21.118874 40.149509,21.118874 Z"
           sodipodi:nodetypes="cscscscsc"
           inkscape:transform-center-y="0.61194253"
           inkscape:transform-center-x="-0.35330352" />
      </g>
    </g>
  </g>
</svg>
