<?xml version="1.0" encoding="UTF-8" standalone="no"?>
<!-- Created with Inkscape (http://www.inkscape.org/) -->

<svg
   width="100"
   height="100"
   viewBox="0 0 100 100"
   version="1.1"
   id="svg5"
   inkscape:version="1.1.2 (b8e25be833, 2022-02-05)"
   sodipodi:docname="profile_icon.svg"
   xmlns:inkscape="http://www.inkscape.org/namespaces/inkscape"
   xmlns:sodipodi="http://sodipodi.sourceforge.net/DTD/sodipodi-0.dtd"
   xmlns="http://www.w3.org/2000/svg"
   xmlns:svg="http://www.w3.org/2000/svg">
  <sodipodi:namedview
     id="namedview7"
     pagecolor="#000000"
     bordercolor="#999999"
     borderopacity="1"
     inkscape:pageshadow="0"
     inkscape:pageopacity="0"
     inkscape:pagecheckerboard="0"
     inkscape:document-units="px"
     showgrid="false"
     inkscape:object-paths="true"
     inkscape:snap-intersection-paths="true"
     width="100px"
     inkscape:zoom="1"
     inkscape:cx="120.5"
     inkscape:cy="201.5"
     inkscape:window-width="1360"
     inkscape:window-height="705"
     inkscape:window-x="-4"
     inkscape:window-y="-4"
     inkscape:window-maximized="1"
     inkscape:current-layer="layer1" />
  <defs
     id="defs2" />
  <g
     inkscape:label="Camada 1"
     inkscape:groupmode="layer"
     id="layer1">
    <path
       id="circle1353"
       style="fill:#8533ff;stroke-width:50;stroke-linecap:round;stroke-linejoin:round;fill-opacity:1"
       d="m 89.925135,80.052733 c -0.936394,-0.701636 -1.864344,-1.413486 -2.773437,-2.145183 -1.019567,-0.82061 -2.02152,-1.65967 -3.00586,-2.516927 -0.98434,-0.857256 -1.950917,-1.73232 -2.89909,-2.625 -0.94817,-0.892676 -1.877997,-1.802939 -2.78906,-2.729816 -0.911063,-0.926877 -1.80342,-1.87023 -2.676433,-2.830077 -0.873014,-0.95985 -1.72652,-1.936136 -2.560547,-2.927736 -0.834027,-0.991597 -1.64861,-1.99871 -2.44271,-3.020834 -0.794097,-1.022123 -1.567733,-2.059253 -2.320963,-3.110676 a 26.440262,26.440262 0 0 0 3.373046,-4.014974 26.440262,26.440262 0 0 0 2.514977,-4.600913 26.440262,26.440262 0 0 0 1.55664,-5.00716 26.440262,26.440262 0 0 0 0.53841,-5.216147 26.440262,26.440262 0 0 0 -0.50781,-5.158203 26.440262,26.440262 0 0 0 -1.50456,-4.960286 26.440262,26.440262 0 0 0 -2.44336,-4.570964 26.440262,26.440262 0 0 0 -3.28841,-4.00651 26.440262,26.440262 0 0 0 -4.00651,-3.28841 26.440262,26.440262 0 0 0 -4.570963,-2.44336 26.440262,26.440262 0 0 0 -4.960287,-1.504556 26.440262,26.440262 0 0 0 -5.158203,-0.507814 26.440262,26.440262 0 0 0 -5.158203,0.507814 26.440262,26.440262 0 0 0 -4.960287,1.504556 26.440262,26.440262 0 0 0 -4.570963,2.44336 26.440262,26.440262 0 0 0 -4.00651,3.28841 26.440262,26.440262 0 0 0 -3.28841,4.00651 26.440262,26.440262 0 0 0 -2.44336,4.570964 26.440262,26.440262 0 0 0 -1.50456,4.960286 26.440262,26.440262 0 0 0 -0.50781,5.158203 26.440262,26.440262 0 0 0 0.552083,5.289064 26.440262,26.440262 0 0 0 1.598957,5.071613 26.440262,26.440262 0 0 0 2.58138,4.64909 26.440262,26.440262 0 0 0 3.459636,4.03841 c -0.74957,1.05818 -1.51982,2.10205 -2.310546,3.13086 -0.79073,1.028813 -1.60194,2.04288 -2.432943,3.041017 -0.831004,0.998133 -1.681687,1.980466 -2.552084,2.946613 -0.870393,0.96615 -1.760366,1.916107 -2.66927,2.84896 -0.908903,0.932853 -1.836673,1.848497 -2.783203,2.746743 -0.94653,0.89825 -1.911913,1.778943 -2.895183,2.641277 -0.98327,0.862336 -1.984777,1.706136 -3.003907,2.53125 -0.914353,0.740283 -1.84782,1.45995 -2.790363,2.16927 A 49.999999,49.999999 0 0 0 50.000005,100 49.999999,49.999999 0 0 0 89.925135,80.052733 Z" />
    <path
       id="path2267"
       style="fill:#ffffff;stroke-width:50;stroke-linecap:round;stroke-linejoin:round"
       d="M 50.000005,8.9087891e-7 A 49.999999,49.999999 0 0 0 5.46e-6,50 49.999999,49.999999 0 0 0 10.314459,80.411457 c 0.942543,-0.70932 1.87601,-1.428987 2.790363,-2.16927 1.01913,-0.825114 2.020637,-1.668914 3.003907,-2.53125 0.98327,-0.862334 1.948653,-1.743027 2.895183,-2.641277 0.94653,-0.898246 1.8743,-1.81389 2.783203,-2.746743 0.908904,-0.932853 1.798877,-1.88281 2.66927,-2.84896 0.870397,-0.966147 1.72108,-1.94848 2.552084,-2.946613 0.831003,-0.998137 1.642213,-2.012204 2.432943,-3.041017 0.790726,-1.02881 1.560976,-2.07268 2.310546,-3.13086 a 26.440262,26.440262 0 0 1 -3.459636,-4.03841 26.440262,26.440262 0 0 1 -2.58138,-4.64909 26.440262,26.440262 0 0 1 -1.598957,-5.071613 26.440262,26.440262 0 0 1 -0.552083,-5.289064 26.440262,26.440262 0 0 1 0.50781,-5.158203 26.440262,26.440262 0 0 1 1.50456,-4.960286 26.440262,26.440262 0 0 1 2.44336,-4.570964 26.440262,26.440262 0 0 1 3.28841,-4.00651 26.440262,26.440262 0 0 1 4.00651,-3.28841 26.440262,26.440262 0 0 1 4.570963,-2.44336 26.440262,26.440262 0 0 1 4.960287,-1.504556 26.440262,26.440262 0 0 1 5.158203,-0.507814 26.440262,26.440262 0 0 1 5.158203,0.507814 26.440262,26.440262 0 0 1 4.960287,1.504556 26.440262,26.440262 0 0 1 4.570963,2.44336 26.440262,26.440262 0 0 1 4.00651,3.28841 26.440262,26.440262 0 0 1 3.28841,4.00651 26.440262,26.440262 0 0 1 2.44336,4.570964 26.440262,26.440262 0 0 1 1.50456,4.960286 26.440262,26.440262 0 0 1 0.50781,5.158203 26.440262,26.440262 0 0 1 -0.53841,5.216147 26.440262,26.440262 0 0 1 -1.55664,5.00716 26.440262,26.440262 0 0 1 -2.514977,4.600913 26.440262,26.440262 0 0 1 -3.373046,4.014974 c 0.75323,1.051423 1.526866,2.088553 2.320963,3.110676 0.7941,1.022124 1.608683,2.029237 2.44271,3.020834 0.834027,0.9916 1.687533,1.967886 2.560547,2.927736 0.873013,0.959847 1.76537,1.9032 2.676433,2.830077 0.911063,0.926877 1.84089,1.83714 2.78906,2.729816 0.948173,0.89268 1.91475,1.767744 2.89909,2.625 0.98434,0.857257 1.986293,1.696317 3.00586,2.516927 0.909093,0.731697 1.837043,1.443547 2.773437,2.145183 A 49.999999,49.999999 0 0 0 100,50 49.999999,49.999999 0 0 0 50.000005,8.9087891e-7 Z" />
  </g>
</svg>
